<?xml version="1.0" encoding="UTF-8" standalone="no"?>
<!-- Created with Inkscape (http://www.inkscape.org/) -->

<svg
   width="24px"
   height="24px"
   viewBox="0 0 297 210"
   id="svg5"
   >
 
  <defs
     id="defs2" />
  <g
     inkscape:label="Layer 1"
     inkscape:groupmode="layer"
     id="layer1">
    <path
       id="text1947"
       style="font-style:normal;font-variant:normal;font-weight:normal;font-stretch:normal;font-size:10.5833px;line-height:1.25;font-family:Cambria;-inkscape-font-specification:Cambria;fill:#ff8009;fill-opacity:1;stroke:none;stroke-width:0.264583"
       d="m 36.978677,97.469459 v 0.253214 c 0.134358,0.03101 0.234265,0.07235 0.299723,0.124023 0.06546,0.05168 0.125746,0.127469 0.180867,0.227375 0.05857,0.09991 0.13436,0.275609 0.227377,0.5271 l 0.911572,2.451539 0.774628,-0.29404 -0.683678,-1.924954 c -0.04823,-0.134358 -0.0844,-0.251494 -0.108521,-0.351401 -0.02067,-0.09991 -0.031,-0.196371 -0.031,-0.289388 0,-0.08957 0.0155,-0.161919 0.04651,-0.21704 0.031,-0.05857 0.07924,-0.105077 0.144693,-0.139525 0.06546,-0.0379 0.179147,-0.07579 0.341066,-0.113689 v -0.253214 z m 3.307292,0 v 0.253214 c 0.199813,0.04479 0.339341,0.105074 0.418579,0.180866 0.08268,0.07579 0.124023,0.187759 0.124023,0.335897 0,0.09991 -0.01723,0.208428 -0.05168,0.325562 -0.031,0.113688 -0.07579,0.239434 -0.134358,0.377237 l -0.660424,1.585435 0.730705,-0.2775 0.720368,-1.617992 c 0.09991,-0.220485 0.186036,-0.39102 0.258384,-0.511598 0.07234,-0.124021 0.144693,-0.213596 0.21704,-0.268716 0.07235,-0.05857 0.175699,-0.101632 0.310058,-0.129191 v -0.253214 z m 0.302305,3.059761 -0.698664,0.22014 -0.280604,0.67335 -0.187068,-0.52607 -0.789099,0.24856 0.500745,1.34721 c -0.14814,0.30661 -0.282498,0.55983 -0.403077,0.75964 -0.117133,0.19982 -0.220485,0.34796 -0.310057,0.44442 -0.08613,0.0965 -0.170534,0.16364 -0.253217,0.20154 -0.07923,0.0413 -0.170532,0.062 -0.273883,0.062 -0.117134,0 -0.206706,-0.0276 -0.268719,-0.0827 -0.06201,-0.0551 -0.113689,-0.15331 -0.15503,-0.29456 h -0.45992 v 1.0232 c 0.237712,0.0448 0.451311,0.0672 0.640789,0.0672 0.296278,0 0.551215,-0.0672 0.76481,-0.20154 0.217041,-0.13436 0.415137,-0.33418 0.594281,-0.59945 0.179144,-0.26527 0.363458,-0.61151 0.552937,-1.0387 z" />
     
  </g>
</svg>
